<svg version="1.0" xmlns="http://www.w3.org/2000/svg" width="333.333" height="362.667" viewBox="0 0 250 272">
  <path class="my-path" d="M93 2.1c-9.3 1.1-23.5 5-31.8 8.9C26.7 27 6.5 62.5 2 115c-3.9 45.7 4.2 87.4 22.5 115 19.6 29.5 56.9 45.3 97.3 41.2 57.1-5.8 90.3-44.6 96.1-112.7 5-57.3-8.6-107-36.1-132.1C160 6.6 128.7-2 93 2.1zM124.5 4c35.2 4 61.6 22.1 76.4 52.5 8.9 18.2 13.4 37 15.3 64.2 2.6 35.7-3.1 71.3-15.3 95.4-5.6 11.2-9 16-17.3 24.8-16.1 16.7-35.7 25.7-62.4 28.3-26.1 2.6-52.2-3.6-71.9-17-6.5-4.5-18.4-16.4-23-23.2C9.3 203.9.8 163 3.8 120.7c1.9-27.2 6.4-46 15.3-64.2C37.9 17.9 76.6-1.4 124.5 4z"/>
  <path d="M111.8 15.6c-.3.5-1.3 2.6-2.1 4.6-1.5 3.6-1.5 3.7.4 2.5 1.5-.9 2.3-.9 4 .1 1.9 1.2 2 1.2 1.4-1-1.2-3.9-3.2-7.1-3.7-6.2zm1.1 5.3c-1.5.5-2.2-.6-1.4-1.9.6-.9 1-.9 1.6.1.5.8.4 1.5-.2 1.8zM96 20.5c0 2.5.4 4.5.9 4.5s.7-.9.4-2c-.7-2.6.5-2.5 3.4.2 1.3 1.2 2.3 1.7 2.3 1.1 0-.6-.7-1.6-1.5-2.3-1.1-.9-1.2-1.6-.4-2.6 1.5-1.8.3-3.4-2.7-3.4-2.2 0-2.4.4-2.4 4.5zm4-2.5c0 .5-.7 1-1.5 1s-1.5-.5-1.5-1c0-.6.7-1 1.5-1s1.5.4 1.5 1zM122.2 18c-.1 1.4-.5 3.6-.8 5-.5 1.9-.4 2.2.5 1.4.7-.7 1.1-2.8.8-5-.2-2.2-.4-2.8-.5-1.4zM129.6 21.1c-.4 2.3-.4 4.4-.1 4.7.3.3.5-.3.5-1.4 0-1 .5-2.6 1-3.4.7-1.2 1.3-.6 2.5 2.4 1.9 4.4 3.1 3.9 3.9-1.9l.6-4-1.4 3.5-1.3 3.5-1.9-3.8c-1-2-2.1-3.7-2.5-3.7-.3 0-.9 1.9-1.3 4.1zM82.8 18.5c-.3.3-.1 2.5.5 4.9.9 4.1 1.2 4.3 3.6 3.7 2.6-.7 4.4-5.1 2.2-5.1-.6 0-1.1-.9-1.1-2 0-1.4-.7-2-2.3-2-1.3 0-2.6.2-2.9.5zm4 1.7c-.6 1.8-2.8 2.1-2.8.4 0-.9.7-1.6 1.6-1.6.9 0 1.4.5 1.2 1.2zm2 4c-.7 1.9-3.8 2.2-3.8.4 0-1 .9-1.6 2.1-1.6 1.2 0 1.9.5 1.7 1.2zM145.4 22.4c-.3.8 0 2.4.6 3.5 1.4 2.7.4 4.7-1.6 3-.8-.7-1.4-.7-1.4-.1 0 1.8 3.3 2.3 4.9.8 1.3-1.4 1.3-1.7-.2-3.4-2.3-2.5-2.1-3.5.3-2.9 2.4.6 2.7-.8.4-1.7-2.2-.8-2.4-.8-3 .8zM63 27.4c0 .8.4 1.7 1 2.1.5.3.7 1.2.4 1.9-.3.7.2 1.8 1 2.5 1.2 1 2.1.9 4.5-.5 1.7-1 2.7-2.1 2.2-2.4-.4-.3-1.3-1.4-2-2.5-.9-1.5-1.1-1.6-.7-.3.3 1.2 0 1.8-.9 1.8-.8 0-1.5-.9-1.5-2 0-1.3-.7-2-2-2-1.1 0-2 .6-2 1.4zm3 .6c0 .5-.4 1-1 1-.5 0-1-.5-1-1 0-.6.5-1 1-1 .6 0 1 .4 1 1zm3 4.1c0 1.1-2.7 1.2-3.4 0-.3-.4-.3-1.1 0-1.4.8-.8 3.4.3 3.4 1.4zM161 34.1c-1.4 2.5 1.1 6.9 3.8 6.8 1.2 0 1.1-.3-.6-1-1.8-.7-2.3-1.5-2-3.6.4-3.4 3.2-4.2 5.9-1.7 2 1.8 2.7.6.7-1.4s-6.6-1.5-7.8.9zM48.2 37.2c-2.3 2.3-1.3 3.8 2.3 3.8 3.8 0 4.5 1.3 1.8 3-1.6 1-1.6 1 .2.8 1.2-.2 2.1-1.2 2.3-2.6.3-1.9-.1-2.2-3.2-2.2-3.8 0-4.4-.8-2.4-2.8.7-.7 1-1.2.7-1.2-.3 0-1 .5-1.7 1.2zM92.5 37.5c-14.4 3.2-25.4 9.3-34.7 19.3-15.6 17-22.9 41.7-22.9 78.2 0 25.7 2.6 41.5 9.5 58 8.8 20.7 25 35.3 45.1 40.5 8.4 2.2 25.5 3 34.5 1.6 36-5.7 57-32.3 62.1-78.8 1.6-14.5.6-42.8-2-55.3-7.4-36.5-25.4-57.3-55.3-63.5-8.5-1.8-28.1-1.8-36.3 0zm42 3.5c26.2 8.2 41.6 28.5 48.2 63.3 1.3 7.1 1.7 14.5 1.7 32.2 0 20-.3 24.4-2.3 33.4-4.7 22-10 33-21.6 44.7-12.4 12.5-25.1 17.9-45 19.1-31 1.8-54.7-11.3-67.4-37.1-7.8-15.8-11.1-33.9-11.1-61.1 0-27.6 3.1-44 11.8-61.5 8.7-17.8 24.7-30.4 43.7-34.5 10.5-2.2 32.8-1.5 42 1.5z"/>
  <path d="M74 94.5V116h11.1c8.6 0 11.7-.4 13.9-1.7 6.9-4 7.9-13.7 2.1-19.7-2.7-2.8-2.8-3.3-1.5-5 3.2-4.4.8-13.2-4.1-15.4-1.4-.7-6.8-1.2-12-1.2H74v21.5zm19.7-14.3c1.8 1.5 1.6 5.8-.4 8-1.2 1.3-3.1 1.8-7.5 1.8H80v-5.3c0-3 .3-5.7.8-6.1 1-1.1 11.2.2 12.9 1.6zm3 18c2.8 2.6 3 6.7.5 9.8-1.5 1.9-3.1 2.4-9.5 2.8l-7.7.5V96h7.2c6 0 7.6.4 9.5 2.2zM110 133.5c-14 14-25.1 25.8-24.7 26.2.8.7 51.7-49.5 51.7-50.9 0-.5-.3-.8-.8-.8-.4 0-12.2 11.5-26.2 25.5zM116 176.5V198h11c11.9 0 15.5-1 18.2-5.2 3.5-5.5 2.8-13.1-1.7-16.6-2.4-1.9-2.4-2-.8-6 1.9-5 1.2-8.5-2.7-12.3-2.8-2.8-3.1-2.9-13.4-2.9H116v21.5zm20.2-13.5c2.3 2.9 2.3 4.5-.2 7-1.7 1.7-3.1 2-7.8 1.8l-5.7-.3-.3-4.4c-.5-6.9 0-7.4 6.5-6.9 4.3.4 6.1 1 7.5 2.8zm2.6 16.6c1.6 1.1 2.2 2.5 2.2 5.3 0 5.8-2.5 7.5-11.3 7.5l-7.2.1-.3-7.3-.3-7.2h7.3c5 0 8.1.5 9.6 1.6zM173.2 43.2c-.7.7-1.2 2.5-1.2 4 0 5.1 8.1 5 8.8-.1.7-4.2-4.6-6.9-7.6-3.9zm5.9 1.4c1.7 2.1 0 4.9-3.2 4.9-2.4 0-3.6-2.3-2.5-5.1.7-1.9 4-1.8 5.7.2zM40 45.9c0 .6.9 1.5 2 2.1 3.2 1.7 2.3 3-2.2 3l-4.3.1 3.4 2.9c1.9 1.6 3.7 2.8 3.9 2.5.3-.2-.6-1.3-1.9-2.4l-2.4-2 4.3-.1c2.3 0 4.2-.4 4.2-.9s-1.6-2.1-3.5-3.5c-1.9-1.5-3.5-2.2-3.5-1.7zM183.3 55.1c-3.5 2.2-4.4 3.5-1.7 2.5.9-.4 2.3-.1 3.2.6 1.3 1.1 1.4 1 .8-1-.9-2.7 1-3 3.1-.5 1.2 1.6 1.2 1.4.2-1-1.4-3.2-1.5-3.2-5.6-.6zM30.9 63.8c2.1 3 6.1 6.7 4.7 4.4-1.1-1.8.3-5.2 2.2-5.3 2.1-.2-3.4-1.6-6.6-1.8l-2.3-.1 2 2.8zm3.5.3c-.6 1.1-2.4.2-2.4-1.1 0-.5.7-.7 1.5-.4.8.4 1.2 1 .9 1.5zM188.3 64.7c-1.8.9-3.3 2-3.3 2.5s.9.4 1.9-.2c1.6-.8 2.2-.6 3.1.7 1 1.6 1.1 1.5.7-.5-.6-2.7 1.7-3 3.2-.5 1.4 2.4 1.4.7.1-1.8-1.3-2.3-1.5-2.3-5.7-.2zM24 72.9c-1.4 2.8-1.5 2.7 3.2 4.5 4.3 1.8 5.9 1.1 5.7-2.4-.1-1.1-.3-1-.6.2-.2 1-1.3 1.8-2.4 1.8-1.6 0-1.9-.5-1.4-2.3.6-2 .5-2.1-.8-.5-2 2.5-3 2.2-2.5-.7.6-3 .2-3.2-1.2-.6zM192.7 74.8c-2.5 1-3.6 2-3.2 2.9.3.8.5 1.9.5 2.4s.5.9 1 .9c.7 0 .7-.6.1-1.9-.8-1.5-.7-2 .6-2.5.9-.4 2-.1 2.5.6.6 1 .8.8.8-.5 0-.9.4-1.7 1-1.7.5 0 1.4.8 1.9 1.7 1.1 2 1.5.4.5-2.1-.7-1.9-.8-1.9-5.7.2zM20.1 85.3c-1 2.6.2 3.5 5 3.9 3.2.3 3.4.1 3.4-2.7 0-2.7-.3-2.9-3.8-3.1-3.1-.2-4 .1-4.6 1.9zm3.4 1.7c-.5.8-1.1.8-1.7.2-.6-.6-.7-1.6-.3-2.2.5-.8 1.1-.8 1.7-.2.6.6.7 1.6.3 2.2zm4.5.1c0 1-.6 1.9-1.3 1.9-2.2 0-2.7-1.1-1.6-3.2 1.2-2.2 2.9-1.5 2.9 1.3zM195.9 85.4c-3.1 1-3.4 1.4-2.8 3.6.7 2.4.7 2.4.8.2.1-2.1 3.1-3.3 3.1-1.2 0 .5.4 1 1 1 .5 0 .7-.7.4-1.5-.4-.9 0-1.5 1-1.5.9 0 1.6.7 1.6 1.5s.4 1.5 1 1.5c1.2 0-.3-4.3-1.6-4.6-.5-.1-2.5.3-4.5 1zM57 236.3c0 .6-1 1.9-2.2 3l-2.3 1.9 2.4-.7c1.9-.6 2.3-.4 1.8.7-.4 1.1.1 1.4 1.9 1 1.3-.2 2.1-.8 1.8-1.3-.3-.5.2-.9 1.1-.9 1.1 0 1.5.5 1.1 1.5-.3.8-.9 2.1-1.2 2.9-.8 2.1 3.3 4.1 5.2 2.5 1.8-1.5 1.8-3.3-.1-4.9-.9-.7-1.3-2-1-2.8.4-1.2.2-1.2-.8-.4-1.9 1.6-3 .3-1.4-1.7.6-.8-.3-.5-2 .8-1.8 1.2-3.3 1.8-3.3 1.2 0-.6.4-1.1.9-1.1s1.1-.6 1.4-1.4c.4-1 0-1.4-1.4-1.3-1 .1-1.9.5-1.9 1zm9.7 7.3c.7 1.8-1.7 3.8-3.1 2.4-1.1-1.1-.1-4 1.4-4 .6 0 1.3.7 1.7 1.6zM161.3 236.7c-2.4.9-1.4 3.3 1.5 3.3 2.6.1 2.6.1.8 1.5-1.1.8-1.5 1.5-.9 1.5 1.4 0 3.4-2.5 2.6-3.3-.3-.4-1.5-.7-2.6-.7-1.6 0-1.7-.3-.7-1.5 1.3-1.6 1.3-1.6-.7-.8zM153.3 241.7c-1 .3-.9 1.2.3 3.5.8 1.6 1.8 2.8 2.1 2.5.2-.3 0-1.5-.7-2.6-1.5-2.9 1.5-4.2 3.5-1.5.8 1.1 1.5 1.4 1.5.8 0-2.6-3.5-4-6.7-2.7zM149.1 244.5c0 .5.6 2.1 1.4 3.5.8 1.4 1.4 2 1.4 1.5 0-.6-.6-2.1-1.4-3.5-.8-1.4-1.4-2.1-1.4-1.5zM69.4 246.5c-.9 2.2.3 4.5 2.3 4.5 1.5 0 1.5-.1-.2-1.3-1-.8-1.5-1.9-1.1-2.5.9-1.4 3.6-1.6 3.6-.2 0 .5-.8.7-1.7.4-1.6-.5-1.6-.4 0 .6 2.2 1.4 3.2.7 2.4-1.5-.8-1.9-4.6-2-5.3 0zM142.3 246.7c-1.7.6-1.6 3.8.1 5.2 1.1.9 2 1 3.5.1 2.4-1.2 2.5-1.5 1.1-4.1-1.1-1.9-2.3-2.2-4.7-1.2zm3.5 2.6c.2 1.2-.3 1.7-1.7 1.7-1.2 0-2.1-.6-2.1-1.3 0-3.1 3.2-3.4 3.8-.4zM76.9 248.6c-1.6 2-.1 4.8 2.8 5.2 1.6.2 2.2-.4 2.6-2.5.3-1.5.5-2.9.4-2.9-1.6-1.2-4.7-1.1-5.8.2zm3.8 2.8c-.4.9-1.1 1.6-1.7 1.6-1.7 0-2.4-3.1-.9-4.1 1.8-1.1 3.4.5 2.6 2.5zM126.4 248.5c.2 1.1.7 3.4 1.1 5.1.5 2.6 1 3 3 2.6 4.4-.8 3.9-6.2-.6-6.2-1 0-2.3-.8-2.9-1.8-1-1.5-1.1-1.5-.6.3zm5.6 4.5c0 2.3-2.5 2.7-3.3.6-.7-1.6.1-2.6 2-2.6.7 0 1.3.9 1.3 2zM123 249.2c0 .9-.9 1.8-2 2.1-1.1.3-2.3 1.3-2.7 2.2-.8 2.2 2 4.5 4.7 3.8 1.7-.5 1.9-1.1 1.4-4.7-.7-4.3-1.4-6-1.4-3.4zm0 4.8c0 1.1-.6 2-1.3 2-1.9 0-2.7-1-2-2.6.8-2.1 3.3-1.7 3.3.6zM136.3 249.6c-.3.8 0 2.5.6 3.7 1.1 2.2 1.1 2.2.7-.2-.3-1.4 0-3.1.6-3.8.7-.9.7-1.3-.1-1.3-.6 0-1.4.7-1.8 1.6zM85.1 252.2c.1 2.4.3 2.7.6 1 .3-1.4 1.2-2.2 2.5-2.2 1.7 0 1.9.4 1.4 2.6-.5 1.7-.3 2.3.4 1.9 2-1.2 1-4.5-1.6-5.5-3.5-1.4-3.4-1.4-3.3 2.2zM94 252.4c0 .8.8 1.7 1.8 2.1 1.6.7 1.5.8-.3 1.5-1.9.8-1.9.9.3.9 2.6.1 3-2.4.5-3.4-1.7-.7-1.6-.8.2-1.5 1.9-.8 1.9-.9-.2-.9-1.3-.1-2.3.5-2.3 1.3zM102 252c-.6.4-1 1.8-.8 3.1.2 1.8 1 2.5 3.1 2.7 2.4.3 2.7 0 2.7-2.6 0-3.1-2.5-4.7-5-3.2zm3.8 2.7c-.2 1-1 1.8-1.8 1.8s-1.6-.8-1.8-1.8c-.2-1.2.3-1.7 1.8-1.7s2 .5 1.8 1.7zM110.1 255.2c.2 3.1.2 3.1.6.5.5-3.5 3.4-3.3 4.5.3.6 2.3.7 2.3.5-.5-.2-2.5-.7-3.1-2.9-3.3-2.6-.3-2.8-.1-2.7 3z"/>
</svg>